<svg width="29" height="21" viewBox="0 0 29 21" fill="none" xmlns="http://www.w3.org/2000/svg">
<path d="M24.2921 9.07143C26.2653 9.07143 27.8635 7.47321 27.8635 5.5C27.8635 3.52679 26.2653 1.92857 24.2921 1.92857C22.3188 1.92857 20.7206 3.52679 20.7206 5.5C20.7206 7.47321 22.3188 9.07143 24.2921 9.07143ZM24.2921 4.07143C25.0778 4.07143 25.7206 4.71429 25.7206 5.5C25.7206 6.28571 25.0778 6.92857 24.2921 6.92857C23.5063 6.92857 22.8635 6.28571 22.8635 5.5C22.8635 4.71429 23.5063 4.07143 24.2921 4.07143ZM4.29206 9.07143C6.26528 9.07143 7.86349 7.47321 7.86349 5.5C7.86349 3.52679 6.26528 1.92857 4.29206 1.92857C2.31885 1.92857 0.720633 3.52679 0.720633 5.5C0.720633 7.47321 2.31885 9.07143 4.29206 9.07143ZM4.29206 4.07143C5.07778 4.07143 5.72063 4.71429 5.72063 5.5C5.72063 6.28571 5.07778 6.92857 4.29206 6.92857C3.50635 6.92857 2.86349 6.28571 2.86349 5.5C2.86349 4.71429 3.50635 4.07143 4.29206 4.07143ZM21.9885 13.4866C20.7608 11.6652 18.3858 10.9866 16.2831 11.625C15.6492 11.817 14.984 11.9241 14.2876 11.9241C13.5912 11.9241 12.926 11.817 12.2921 11.625C10.1894 10.9866 7.81438 11.6607 6.5867 13.4866C6.03313 14.308 5.71171 15.2946 5.71171 16.3571V18.3571C5.71171 19.5402 6.67153 20.5 7.85456 20.5H20.7117C21.8947 20.5 22.8546 19.5402 22.8546 18.3571V16.3571C22.8635 15.2946 22.5421 14.308 21.9885 13.4866ZM20.7206 18.3571H7.86349V16.3571C7.86349 14.7321 9.16706 13.4018 10.7831 13.3571C11.9215 13.8304 13.1001 14.0714 14.2921 14.0714C15.484 14.0714 16.6626 13.8304 17.801 13.3571C19.4171 13.4018 20.7206 14.7277 20.7206 16.3571V18.3571ZM24.8278 10.5H23.7563C22.984 10.5 22.2653 10.7366 21.6671 11.1384C22.2653 11.5893 22.7921 12.1295 23.2028 12.7545C23.3769 12.692 23.5599 12.6429 23.7519 12.6429H24.8233C25.7072 12.6429 26.4305 13.3661 26.4305 14.25C26.4305 14.8393 26.9126 15.3214 27.5019 15.3214C28.0912 15.3214 28.5733 14.8393 28.5733 14.25C28.5778 12.183 26.8947 10.5 24.8278 10.5ZM14.2921 10.5C17.0555 10.5 19.2921 8.26339 19.2921 5.5C19.2921 2.73661 17.0555 0.5 14.2921 0.5C11.5287 0.5 9.29206 2.73661 9.29206 5.5C9.29206 8.26339 11.5287 10.5 14.2921 10.5ZM14.2921 2.64286C15.868 2.64286 17.1492 3.92411 17.1492 5.5C17.1492 7.07589 15.868 8.35714 14.2921 8.35714C12.7162 8.35714 11.4349 7.07589 11.4349 5.5C11.4349 3.92411 12.7162 2.64286 14.2921 2.64286ZM6.91706 11.1384C6.31885 10.7366 5.6001 10.5 4.82778 10.5H3.75635C1.68938 10.5 0.00634766 12.183 0.00634766 14.25C0.00634766 14.8393 0.488491 15.3214 1.07778 15.3214C1.66706 15.3214 2.1492 14.8393 2.1492 14.25C2.1492 13.3661 2.87242 12.6429 3.75635 12.6429H4.82778C5.0242 12.6429 5.20724 12.692 5.37688 12.7545C5.79206 12.1295 6.31885 11.5893 6.91706 11.1384Z" fill="url(#paint0_linear)"/>
<defs>
<linearGradient id="paint0_linear" x1="0.00634766" y1="0.5" x2="21.3297" y2="26.4517" gradientUnits="userSpaceOnUse">
<stop stop-color="#fff"/>
<stop offset="1" stop-color="#fff"/>
</linearGradient>
</defs>
</svg>