<svg width="23" height="21" viewBox="0 0 23 21" fill="none" xmlns="http://www.w3.org/2000/svg">
<path d="M22.0586 12.6875C20.8438 11.6562 19.3516 12.0586 18.6055 12.6172L16.2461 14.3945H16.1172C16.1094 12.9102 14.9258 11.7461 13.4141 11.7461H7.78906C6.67969 11.7461 5.58984 12.1133 4.72266 12.7734L3.61719 13.625H1.125C0.78125 13.625 0.5 13.9062 0.5 14.25V14.875C0.5 15.2188 0.78125 15.5 1.125 15.5H4.25L5.86328 14.2695C6.41016 13.8516 7.08984 13.625 7.79297 13.625H13.418C14.5078 13.625 14.5547 15.1953 13.375 15.1953H11.0391C10.7422 15.1953 10.5 15.4375 10.5 15.7344V15.7383C10.5 16.0352 10.7422 16.2773 11.0391 16.2773H16.293C16.6719 16.2773 17.043 16.1523 17.3438 15.9258L19.7383 14.125C20.0625 13.8828 20.5391 13.8633 20.8477 14.125C21.2422 14.457 21.2109 15.0273 20.8125 15.3242L16.8828 18.2734C16.5781 18.5 16.2109 18.625 15.832 18.625H1.125C0.78125 18.625 0.5 18.9062 0.5 19.25V19.875C0.5 20.2188 0.78125 20.5 1.125 20.5H15.8438C16.6211 20.5 17.3789 20.2461 18 19.7773L21.9375 16.8125C22.5859 16.3242 22.9727 15.582 22.9961 14.7812C23.0234 13.9805 22.6797 13.2148 22.0586 12.6875ZM10.5625 6.13672L12.5195 6.69531C12.6602 6.73438 12.7578 6.86719 12.7578 7.01172C12.7578 7.19141 12.6094 7.33984 12.4297 7.33984H11.1484C11.0078 7.33984 10.8711 7.30859 10.7461 7.25391C10.5586 7.16797 10.3398 7.1875 10.1953 7.33203L9.51172 8.01562C9.30469 8.22266 9.32812 8.57422 9.57031 8.73438C9.94141 8.98047 10.3672 9.12891 10.8125 9.18359V9.875C10.8125 10.2188 11.0938 10.5 11.4375 10.5H12.0625C12.4062 10.5 12.6875 10.2188 12.6875 9.875V9.1875C13.8711 9.04688 14.7734 7.97656 14.6133 6.72656C14.5 5.82812 13.8047 5.11328 12.9375 4.86328L10.9805 4.30469C10.8398 4.26562 10.7422 4.13281 10.7422 3.98828C10.7422 3.80859 10.8906 3.66016 11.0703 3.66016H12.3516C12.4922 3.66016 12.6289 3.69141 12.7539 3.74609C12.9414 3.83203 13.1602 3.8125 13.3047 3.66797L13.9883 2.98438C14.1953 2.77734 14.1719 2.42578 13.9297 2.26562C13.5586 2.01953 13.1328 1.87109 12.6875 1.81641V1.125C12.6875 0.78125 12.4062 0.5 12.0625 0.5H11.4375C11.0938 0.5 10.8125 0.78125 10.8125 1.125V1.8125C9.62891 1.95312 8.72656 3.02344 8.88672 4.27344C9 5.17188 9.69141 5.88672 10.5625 6.13672Z" fill="url(#paint0_linear)"/>
<defs>
<linearGradient id="paint0_linear" x1="0.5" y1="0.5" x2="22.2166" y2="21.3149" gradientUnits="userSpaceOnUse">
<stop stop-color="#fff"/>
<stop offset="1" stop-color="#fff"/>
</linearGradient>
</defs>
</svg>