<svg width="24" height="21" viewBox="0 0 24 21" fill="none" xmlns="http://www.w3.org/2000/svg">
<path d="M20.5624 6.21504C20.1364 6.21459 19.7157 6.30998 19.3316 6.49416L17.4271 4.58969C17.6566 4.11006 17.7477 3.57589 17.6901 3.04731C17.6325 2.51873 17.4285 2.01671 17.1011 1.59774C16.7737 1.17878 16.3359 0.859498 15.8369 0.675835C15.3379 0.492172 14.7976 0.451414 14.2767 0.558149C13.7558 0.664884 13.2751 0.914875 12.8885 1.27999C12.502 1.6451 12.225 2.11085 12.0888 2.62481C11.9526 3.13877 11.9625 3.68056 12.1175 4.18919C12.2724 4.69782 12.5662 5.15312 12.9659 5.50384L9.25215 14.7881C9.21358 14.7866 9.17513 14.7852 9.13621 14.7852C8.84645 14.7851 8.55837 14.8292 8.28194 14.9161L5.79982 11.6071C6.17224 11.047 6.33472 10.3733 6.25856 9.70505C6.18239 9.03678 5.87248 8.41694 5.38358 7.95503C4.89468 7.49312 4.25826 7.21888 3.58674 7.18075C2.91523 7.14262 2.25185 7.34306 1.71381 7.74666C1.17576 8.15025 0.797679 8.73103 0.646358 9.38638C0.495037 10.0417 0.580216 10.7295 0.886845 11.3281C1.19347 11.9267 1.70182 12.3977 2.32207 12.6579C2.94232 12.918 3.63456 12.9506 4.27648 12.7498L6.7586 16.0588C6.45413 16.5155 6.2877 17.0503 6.27922 17.5992C6.27074 18.148 6.42057 18.6877 6.71078 19.1536C7.00098 19.6195 7.41928 19.992 7.91563 20.2264C8.41197 20.4608 8.96535 20.5473 9.50954 20.4754C10.0537 20.4036 10.5657 20.1764 10.9842 19.8212C11.4027 19.466 11.71 18.9978 11.8693 18.4725C12.0286 17.9472 12.0333 17.3871 11.8826 16.8593C11.732 16.3314 11.4324 15.8582 11.0199 15.4961L14.7336 6.21183C14.7721 6.21337 14.8106 6.2148 14.8495 6.2148C15.2755 6.21526 15.6962 6.11986 16.0804 5.93568L17.9849 7.84015C17.7178 8.39898 17.6397 9.02945 17.7621 9.63656C17.8846 10.2437 18.201 10.7946 18.6638 11.2062C19.1265 11.6178 19.7105 11.8679 20.3278 11.9188C20.945 11.9697 21.5621 11.8186 22.086 11.4883C22.6099 11.1579 23.0123 10.6663 23.2325 10.0874C23.4527 9.50857 23.4788 8.87381 23.3069 8.27881C23.135 7.6838 22.7744 7.16078 22.2794 6.78855C21.7844 6.41632 21.1818 6.21504 20.5624 6.21504Z" fill="url(#paint0_linear)"/>
<defs>
<linearGradient id="paint0_linear" x1="0.573242" y1="0.5" x2="22.3014" y2="21.6484" gradientUnits="userSpaceOnUse">
<stop stop-color="#fff"/>
<stop offset="1" stop-color="#fff"/>
</linearGradient>
</defs>
</svg>
