<svg width="24" height="20" viewBox="0 0 24 20" fill="none" xmlns="http://www.w3.org/2000/svg">
<path d="M20.599 5.90992C20.599 7.66988 19.1667 9.08617 17.4219 9.08617C15.6615 9.08617 14.2448 7.66467 14.2448 5.90992C14.2448 4.15517 15.6667 2.73366 17.4219 2.73366C19.1667 2.73366 20.599 4.14996 20.599 5.90992ZM23.3333 5.92033C23.3333 9.20073 20.6771 11.8459 17.4115 11.8459L11.7188 16.001C11.5104 18.24 9.60938 20 7.31771 20C5.20833 20 3.42708 18.5004 2.99479 16.5113L0 15.3085V9.72143L5.0625 11.7678C5.84896 11.2887 6.73958 11.0752 7.77083 11.169L11.4688 5.87347C11.4948 2.62952 14.151 0 17.4063 0C20.6771 0 23.3333 2.65556 23.3333 5.92033ZM10.5729 15.5689C10.5729 13.762 9.125 12.3145 7.31771 12.3145C7.08333 12.3145 6.84896 12.3405 6.61458 12.3926L7.96875 12.9393C9.29688 13.4705 9.94792 14.9701 9.41146 16.2978C8.88021 17.6256 7.36979 18.2765 6.04167 17.7298C5.51042 17.5215 4.97396 17.2976 4.44271 17.0945C4.98958 18.1203 6.06771 18.8232 7.31771 18.8232C9.125 18.8232 10.5729 17.3757 10.5729 15.5689ZM21.3802 5.92033C21.3802 3.7334 19.5938 1.95262 17.4115 1.95262C15.2083 1.95262 13.4271 3.7334 13.4271 5.92033C13.4271 8.11768 15.2135 9.88805 17.4115 9.88805C19.5938 9.89326 21.3802 8.12288 21.3802 5.92033Z" fill="white"/>
</svg>
