<svg width="23" height="21" viewBox="0 0 23 21" fill="none" xmlns="http://www.w3.org/2000/svg">
<path d="M17.5 3V1.125C17.5 0.78125 17.2187 0.5 16.875 0.5H5.625C5.28125 0.5 5 0.78125 5 1.125V3H0.625C0.28125 3 0 3.28125 0 3.625V6C0 8.35547 2.66797 10.8906 6.23437 11.5703C7.30469 13.832 8.89453 15.0156 10.3125 15.375V18.625H7.8125C6.94922 18.625 6.25 19.3242 6.25 20.1875C6.25 20.3594 6.39062 20.5 6.5625 20.5H15.9375C16.1094 20.5 16.25 20.3594 16.25 20.1875C16.25 19.3242 15.5508 18.625 14.6875 18.625H12.1875V15.375C13.6055 15.0117 15.1953 13.832 16.2656 11.5703C19.8242 10.8945 22.5 8.35938 22.5 6V3.625C22.5 3.28125 22.2187 3 21.875 3H17.5ZM1.875 6V4.875H5C5 6.40625 5.08203 7.85156 5.48047 9.4375C3.32812 8.69922 1.875 7.13672 1.875 6ZM11.25 13.625C9.17969 13.625 6.875 10.5625 6.875 5.1875V2.375H15.625V5.1875C15.625 10.6758 13.25 13.625 11.25 13.625ZM20.625 6C20.625 7.13672 19.1719 8.69922 17.0195 9.4375C17.418 7.85156 17.5 6.40234 17.5 4.875H20.625V6Z" fill="url(#paint0_linear)"/>
<defs>
<linearGradient id="paint0_linear" x1="0" y1="0.5" x2="21.7167" y2="21.3172" gradientUnits="userSpaceOnUse">
<stop stop-color="#fff"/>
<stop offset="1" stop-color="#fff"/>
</linearGradient>
</defs>
</svg>