<svg width="20" height="21" viewBox="0 0 20 21" fill="none" xmlns="http://www.w3.org/2000/svg">
<path d="M10 0.330078C4.47754 0.330078 0 4.80923 0 10.3301C0 15.8541 4.47754 20.3301 10 20.3301C15.5225 20.3301 20 15.8541 20 10.3301C20 4.80923 15.5225 0.330078 10 0.330078ZM10 18.3946C5.54306 18.3946 1.93548 14.7885 1.93548 10.3301C1.93548 5.87463 5.54323 2.26556 10 2.26556C14.4553 2.26556 18.0645 5.87326 18.0645 10.3301C18.0645 14.7869 14.4584 18.3946 10 18.3946ZM14.3244 8.10427C14.3244 10.808 11.4042 10.8496 11.4042 11.8487V12.1043C11.4042 12.3715 11.1875 12.5881 10.9203 12.5881H9.07968C8.81246 12.5881 8.59581 12.3715 8.59581 12.1043V11.7551C8.59581 10.3138 9.68855 9.73762 10.5143 9.27463C11.2224 8.87766 11.6564 8.60766 11.6564 8.08193C11.6564 7.38653 10.7694 6.92496 10.0522 6.92496C9.11718 6.92496 8.68552 7.36758 8.07875 8.13338C7.91516 8.33984 7.61665 8.37818 7.40673 8.21903L6.2848 7.3683C6.07887 7.21217 6.03274 6.92209 6.17818 6.70851C7.13089 5.30955 8.34435 4.52363 10.2336 4.52363C12.2123 4.52363 14.3244 6.06814 14.3244 8.10427ZM11.6935 14.8462C11.6935 15.78 10.9338 16.5398 10 16.5398C9.06617 16.5398 8.30645 15.78 8.30645 14.8462C8.30645 13.9124 9.06617 13.1527 10 13.1527C10.9338 13.1527 11.6935 13.9124 11.6935 14.8462Z" fill="#DAE7F7"/>
</svg>
