<svg width="21" height="20" viewBox="0 0 21 20" fill="none" xmlns="http://www.w3.org/2000/svg">
<path fill-rule="evenodd" clip-rule="evenodd" d="M16.9266 4.90667L17.394 4.43933C17.6847 4.14856 18.168 4.20148 18.3926 4.54599C20.9202 8.42285 20.4826 13.6681 17.0797 17.071C13.1795 20.9711 6.85925 20.9762 2.95282 17.0862C-0.963159 13.1867 -0.98748 6.89513 2.89967 2.96692C6.3028 -0.472189 11.5755 -0.921402 15.4673 1.61897C15.8097 1.84248 15.8582 2.3255 15.5691 2.61465L15.1018 3.08188C14.8887 3.29507 14.5565 3.33174 14.3014 3.17095C11.185 1.20625 7.02177 1.58179 4.30613 4.29742C1.15411 7.44944 1.1546 12.5508 4.30613 15.7024C7.45815 18.8544 12.5596 18.8539 15.7111 15.7024C18.4271 12.9863 18.802 8.8232 16.8376 5.70708C16.6768 5.45203 16.7134 5.11986 16.9266 4.90667ZM10.7918 9.66914L9.26038 9.14977C9.08381 9.0919 8.9613 8.89186 8.9613 8.66111C8.9613 8.38034 9.14162 8.15352 9.36258 8.15352H10.3186C10.4724 8.15456 10.6231 8.20399 10.7539 8.2964C10.8056 8.33662 10.8675 8.35584 10.9299 8.35098C10.9922 8.34612 11.0513 8.31747 11.0977 8.26961L11.4959 7.83489C11.5241 7.80458 11.5461 7.76763 11.5606 7.72659C11.575 7.68556 11.5815 7.64143 11.5795 7.59725C11.5776 7.55308 11.5672 7.50992 11.5492 7.47077C11.5312 7.43162 11.506 7.39741 11.4752 7.37052C11.1642 7.10931 10.7929 6.95816 10.4073 6.9358V6.30712C10.4068 6.2251 10.3778 6.14668 10.3268 6.08898C10.2758 6.03129 10.2069 5.99901 10.1351 5.9992H9.59072C9.51899 5.99901 9.45012 6.0313 9.39916 6.08901C9.34821 6.14671 9.31932 6.22513 9.31883 6.30712V6.93008C8.51251 6.95687 7.86621 7.72273 7.86621 8.66504C7.86621 9.43446 8.30843 10.1192 8.94098 10.3346L10.4724 10.854C10.6489 10.9115 10.7714 11.1115 10.7714 11.3423C10.7714 11.6234 10.5911 11.8502 10.3702 11.8502H9.41383C9.25997 11.8494 9.10931 11.7999 8.97849 11.7074C8.92681 11.6672 8.86483 11.648 8.80249 11.653C8.74015 11.6579 8.68106 11.6866 8.63471 11.7345L8.23312 12.1653C8.20493 12.1956 8.18285 12.2326 8.16841 12.2736C8.15396 12.3146 8.1475 12.3588 8.14946 12.4029C8.15142 12.4471 8.16176 12.4903 8.17977 12.5294C8.19778 12.5686 8.22302 12.6028 8.25374 12.6297C8.56499 12.8908 8.93636 13.0419 9.32195 13.0644V13.6913C9.32245 13.7733 9.35133 13.8517 9.40229 13.9094C9.45324 13.9671 9.52212 13.9994 9.59385 13.9992H10.1383C10.21 13.9994 10.2789 13.9671 10.3298 13.9094C10.3808 13.8517 10.4097 13.7733 10.4102 13.6913V13.0719C11.213 13.049 11.8628 12.2796 11.8662 11.3373C11.8665 10.5693 11.4243 9.88454 10.7918 9.66914Z" fill="#DAE7F7"/>
</svg>