<svg width="13" height="10" viewBox="0 0 13 10" fill="none" xmlns="http://www.w3.org/2000/svg">
<path d="M10.3125 9.0625H2.1875C2.01562 9.0625 1.875 9.20312 1.875 9.375V9.6875C1.875 9.85938 2.01562 10 2.1875 10H10.3125C10.4844 10 10.625 9.85938 10.625 9.6875V9.375C10.625 9.20312 10.4844 9.0625 10.3125 9.0625ZM11.5625 2.5C11.0449 2.5 10.625 2.91992 10.625 3.4375C10.625 3.57617 10.6563 3.70508 10.7109 3.82422L9.29688 4.67188C9.19531 4.73242 9.08594 4.76172 8.97656 4.76172C8.75977 4.76172 8.54883 4.64844 8.43359 4.44727L6.8418 1.66016C7.05078 1.48828 7.1875 1.23047 7.1875 0.9375C7.1875 0.419922 6.76758 0 6.25 0C5.73242 0 5.3125 0.419922 5.3125 0.9375C5.3125 1.23047 5.44922 1.48828 5.6582 1.66016L4.06641 4.44531C3.95117 4.64844 3.74023 4.75977 3.52344 4.75977C3.41406 4.75977 3.30273 4.73047 3.20312 4.66992L1.79102 3.82227C1.84375 3.70508 1.87695 3.57422 1.87695 3.43555C1.87695 2.91797 1.45703 2.49805 0.939453 2.49805C0.421875 2.49805 0 2.91992 0 3.4375C0 3.95508 0.419922 4.375 0.9375 4.375C0.988281 4.375 1.03906 4.36719 1.08789 4.35938L2.5 8.125H10L11.4121 4.35938C11.4609 4.36719 11.5117 4.375 11.5625 4.375C12.0801 4.375 12.5 3.95508 12.5 3.4375C12.5 2.91992 12.0801 2.5 11.5625 2.5ZM9.34961 7.1875H3.15039L2.44727 5.31055L2.7207 5.47461C2.96289 5.62109 3.24219 5.69727 3.52344 5.69727C4.08398 5.69727 4.60352 5.39648 4.88086 4.91016L6.25 2.51367L7.61914 4.91016C7.89648 5.39648 8.41602 5.69727 8.97656 5.69727C9.25977 5.69727 9.53711 5.62109 9.7793 5.47461L10.0527 5.31055L9.34961 7.1875Z" fill="url(#paint0_linear)"/>
<defs>
<linearGradient id="paint0_linear" x1="0" y1="0" x2="10.8465" y2="11.5525" gradientUnits="userSpaceOnUse">
<stop stop-color="#FFFFFF"/>
<stop offset="1" stop-color="#FFFFFF"/>
</linearGradient>
</defs>
</svg>
